{
    "accessors": {
        "accessor_16": {
            "bufferView": "bufferView_42",
            "byteOffset": 0,
            "byteStride": 2,
            "componentType": 5123,
            "count": 9744,
            "max": [
                4871
            ],
            "min": [
                0
            ],
            "type": "SCALAR"
        },
        "accessor_18": {
            "bufferView": "bufferView_43",
            "byteOffset": 0,
            "byteStride": 12,
            "componentType": 5126,
            "count": 9744,
            "max": [
                3.93949,
                -0.0231637,
                3.94565
            ],
            "min": [
                -3.93949,
                -3.95984,
                -3.93327
            ],
            "type": "VEC3"
        },
        "accessor_20": {
            "bufferView": "bufferView_43",
            "byteOffset": 116928,
            "byteStride": 12,
            "componentType": 5126,
            "count": 9744,
            "max": [
                0.994251,
                1,
                0.996879
            ],
            "min": [
                -0.994251,
                -0.997537,
                -0.996891
            ],
            "type": "VEC3"
        },
        "accessor_36": {
            "bufferView": "bufferView_42",
            "byteOffset": 19488,
            "byteStride": 2,
            "componentType": 5123,
            "count": 9744,
            "max": [
                4871
            ],
            "min": [
                0
            ],
            "type": "SCALAR"
        },
        "accessor_38": {
            "bufferView": "bufferView_43",
            "byteOffset": 233856,
            "byteStride": 12,
            "componentType": 5126,
            "count": 9744,
            "max": [
                3.93949,
                3.93669,
                3.93946
            ],
            "min": [
                -3.93949,
                0,
                -3.93946
            ],
            "type": "VEC3"
        },
        "accessor_40": {
            "bufferView": "bufferView_43",
            "byteOffset": 350784,
            "byteStride": 12,
            "componentType": 5126,
            "count": 9744,
            "max": [
                0.994251,
                0.99734,
                0.996891
            ],
            "min": [
                -0.994251,
                -1,
                -0.99688
            ],
            "type": "VEC3"
        }
    },
    "animations": {},
    "asset": {
        "generator": "collada2gltf@GITDIR-NOTFOUND",
        "premultipliedAlpha": true,
        "profile": {
            "api": "WebGL",
            "version": "1.0.2"
        },
        "version": "1.0.1"
    },
    "bufferViews": {
        "bufferView_42": {
            "buffer": "a-b",
            "byteLength": 38976,
            "byteOffset": 0,
            "target": 34963
        },
        "bufferView_43": {
            "buffer": "a-b",
            "byteLength": 467712,
            "byteOffset": 38976,
            "target": 34962
        }
    },
    "buffers": {
        "a-b": {
            "byteLength": 506688,
            "type": "arraybuffer",
            "uri": "data:application/octet-stream;base64,"
        }
    },
    "materials": {
        "Jade__White_Green_1-fx": {
            "name": "Jade__White_Green_1",
            "technique": "technique0",
            "values": {
                "diffuse": [
                    0.288,
                    0.192,
                    0.432,
                    1
                ],
                "filterColor": [
                    1,
                    1,
                    1,
                    1
                ],
                "transparency": 1
            }
        },
        "Wax__Natural_1-fx": {
            "name": "Wax__Natural_1",
            "technique": "technique0",
            "values": {
                "diffuse": [
                    0.68,
                    0.664,
                    0.536,
                    1
                ],
                "filterColor": [
                    1,
                    1,
                    1,
                    1
                ],
                "transparency": 1
            }
        }
    },
    "meshes": {
        "MeshShape": {
            "name": "MeshShape",
            "primitives": [
                {
                    "attributes": {
                        "NORMAL": "accessor_20",
                        "POSITION": "accessor_18"
                    },
                    "indices": "accessor_16",
                    "material": "Wax__Natural_1-fx",
                    "mode": 4
                }
            ]
        },
        "MeshShape_1": {
            "name": "MeshShape",
            "primitives": [
                {
                    "attributes": {
                        "NORMAL": "accessor_40",
                        "POSITION": "accessor_38"
                    },
                    "indices": "accessor_36",
                    "material": "Jade__White_Green_1-fx",
                    "mode": 4
                }
            ]
        }
    },
    "nodes": {
        "_b_Mesh": {
            "children": [],
            "matrix": [
                0.171281,
                0,
                0,
                0,
                0,
                0.171281,
                0,
                0,
                0,
                0,
                0.171281,
                0,
                0,
                0,
                0,
                1
            ],
            "meshes": [
                "MeshShape"
            ],
            "name": "Mesh"
        },
        "_t_Mesh": {
            "children": [],
            "matrix": [
                0.171281,
                0,
                0,
                0,
                0,
                0.171281,
                0,
                0,
                0,
                0,
                0.171281,
                0,
                0,
                0,
                0,
                1
            ],
            "meshes": [
                "MeshShape_1"
            ],
            "name": "Mesh"
        }
    },
    "programs": {
        "program_0": {
            "attributes": [
                "a_normal",
                "a_position"
            ],
            "fragmentShader": "a-b0FS",
            "vertexShader": "a-b0VS"
        }
    },
    "scene": "defaultScene",
    "scenes": {
        "defaultScene": {
            "nodes": [
                "_b_Mesh",
                "_t_Mesh"
            ]
        }
    },
    "shaders": {
        "a-b0FS": {
            "type": 35632,
            "uri": "data:text/plain;base64,"
        },
        "a-b0VS": {
            "type": 35633,
            "uri": "data:text/plain;base64,"
        }
    },
    "skins": {},
    "techniques": {
        "technique0": {
            "attributes": {
                "a_normal": "normal",
                "a_position": "position"
            },
            "parameters": {
                "filterColor": {
                    "type": 35666,
                    "value": [
                        1,
                        1,
                        1,
                        1
                    ]
                },
                "modelViewMatrix": {
                    "semantic": "MODELVIEW",
                    "type": 35676
                },
                "normal": {
                    "semantic": "NORMAL",
                    "type": 35665
                },
                "normalMatrix": {
                    "semantic": "MODELVIEWINVERSETRANSPOSE",
                    "type": 35675
                },
                "position": {
                    "semantic": "POSITION",
                    "type": 35665
                },
                "projectionMatrix": {
                    "semantic": "PROJECTION",
                    "type": 35676
                },
                "transparency": {
                    "type": 5126
                }
            },
            "program": "program_0",
            "states": {
                "enable": [
                    2929
                ]
            },
            "uniforms": {
                "u_filterColor": "filterColor",
                "u_modelViewMatrix": "modelViewMatrix",
                "u_normalMatrix": "normalMatrix",
                "u_projectionMatrix": "projectionMatrix",
                "u_transparency": "transparency"
            }
        }
    }
}